<?xml version="1.0" standalone="no"?>
<!DOCTYPE svg PUBLIC "-//W3C//DTD SVG 20010904//EN"
 "http://www.w3.org/TR/2001/REC-SVG-20010904/DTD/svg10.dtd">
<svg version="1.0" xmlns="http://www.w3.org/2000/svg"
 width="1000.000000pt" height="1080.000000pt" viewBox="0 0 1000.000000 1080.000000"
 preserveAspectRatio="xMidYMid meet">

<g transform="translate(0.000000,1080.000000) scale(0.100000,-0.100000)"
fill="#000000" stroke="none">
<path d="M0 5400 l0 -5400 5000 0 5000 0 0 5400 0 5400 -5000 0 -5000 0 0
-5400z m2966 4215 c390 -58 748 -213 1059 -459 55 -44 297 -275 538 -515 l437
-435 438 435 c524 523 634 614 907 754 733 376 1621 309 2292 -171 738 -530
1077 -1468 848 -2347 -79 -306 -239 -616 -437 -852 -42 -49 -970 -983 -2062
-2075 l-1986 -1985 -1986 1985 c-1092 1092 -2020 2026 -2062 2075 -263 313
-439 720 -493 1145 -18 140 -15 422 6 565 148 1020 952 1790 1980 1895 122 12
388 4 521 -15z m-2632 -9158 c52 -148 43 -145 85 -27 30 84 42 106 59 108 20
3 19 -1 -15 -95 -19 -54 -40 -113 -46 -131 -9 -27 -15 -32 -36 -30 -22 3 -29
16 -68 123 -24 65 -43 123 -43 127 0 4 8 8 18 8 12 0 25 -22 46 -83z m1127 54
c34 -34 37 -51 9 -51 -11 0 -20 4 -20 10 0 5 -11 17 -25 26 -34 22 -78 5 -73
-29 2 -17 15 -26 57 -39 29 -10 59 -23 67 -29 20 -17 17 -73 -5 -93 -44 -40
-138 -28 -160 20 -15 33 -14 34 8 34 10 0 21 -7 25 -15 16 -41 106 -38 106 4
0 25 -17 38 -64 46 -75 15 -103 83 -50 124 39 31 89 28 125 -8z m609 -43 l0
-72 39 38 c23 22 46 36 57 34 15 -3 12 -9 -19 -39 l-37 -36 41 -56 c38 -54 39
-57 17 -57 -15 1 -32 14 -50 40 -15 22 -32 40 -38 40 -5 0 -10 -18 -10 -40 0
-33 -3 -40 -20 -40 -19 0 -20 7 -20 130 0 123 1 130 20 130 18 0 20 -7 20 -72z
m-1150 21 c0 -12 7 -19 20 -19 11 0 20 -7 20 -15 0 -8 -9 -15 -20 -15 -18 0
-20 -7 -20 -65 0 -58 2 -65 20 -65 11 0 20 -7 20 -16 0 -11 -8 -14 -32 -12
l-33 3 -3 74 c-3 63 -6 74 -22 78 -26 7 -26 33 0 33 13 0 20 7 20 18 0 10 3
22 6 25 11 10 24 -3 24 -24z m650 1 c0 -13 7 -20 20 -20 11 0 20 -7 20 -15 0
-8 -9 -15 -20 -15 -18 0 -20 -7 -20 -65 0 -58 2 -65 20 -65 11 0 20 -7 20 -16
0 -11 -8 -14 -32 -12 l-33 3 -3 74 c-3 63 -6 74 -22 78 -26 7 -26 33 0 33 13
0 20 7 20 20 0 11 7 20 15 20 8 0 15 -9 15 -20z m-945 -45 c14 -13 25 -36 25
-50 0 -24 -2 -25 -65 -25 -69 0 -82 -12 -49 -44 20 -20 48 -20 68 0 9 8 24 14
34 12 30 -6 -31 -58 -68 -58 -46 0 -90 47 -90 95 0 79 92 124 145 70z m189 4
c27 -22 35 -49 13 -49 -7 0 -20 9 -30 20 -34 40 -87 12 -87 -46 0 -58 52 -85
87 -44 20 23 43 26 43 6 0 -22 -49 -56 -82 -56 -19 0 -40 10 -59 29 -81 81 25
211 115 140z m317 -8 c21 -22 29 -39 29 -66 0 -48 -44 -95 -90 -95 -46 0 -90
47 -90 95 0 48 44 95 90 95 22 0 41 -9 61 -29z m99 19 c0 -7 6 -7 19 0 29 15
41 12 41 -10 0 -13 -7 -20 -18 -20 -31 0 -42 -22 -42 -87 0 -56 -2 -63 -20
-63 -19 0 -20 7 -20 95 0 88 1 95 20 95 11 0 20 -5 20 -10z m551 -19 c21 -22
29 -39 29 -66 0 -48 -44 -95 -90 -95 -46 0 -90 47 -90 95 0 48 44 95 90 95 22
0 41 -9 61 -29z m194 4 c14 -13 25 -29 25 -35 0 -17 -24 -11 -43 10 -33 39
-87 12 -87 -43 0 -58 53 -87 87 -47 20 23 43 26 43 6 0 -22 -49 -56 -82 -56
-44 0 -88 48 -88 95 0 79 92 124 145 70z m6805 18 c0 -5 -14 -51 -31 -103 -30
-92 -44 -119 -53 -109 -8 7 65 219 75 219 5 0 9 -3 9 -7z m-1856 -71 c11 -34
23 -62 26 -62 4 0 17 29 29 65 13 37 29 65 37 65 10 0 6 -20 -16 -81 -17 -44
-30 -82 -30 -85 0 -2 -8 -4 -18 -4 -13 0 -25 20 -45 78 -31 87 -32 95 -15 90
7 -3 21 -32 32 -66z m760 52 c20 -20 20 -34 1 -34 -8 0 -15 4 -15 9 0 13 -27
21 -45 15 -21 -8 -19 -33 3 -40 65 -21 72 -27 72 -55 0 -31 -23 -49 -61 -49
-25 0 -59 26 -59 47 0 18 7 16 30 -7 24 -24 43 -25 60 -5 16 19 7 29 -42 44
-22 7 -40 21 -43 32 -15 46 63 79 99 43z m406 -31 l0 -47 28 27 c39 37 64 35
28 -2 l-28 -29 27 -36 c35 -46 11 -49 -27 -4 l-27 33 -1 -32 c0 -23 -5 -33
-15 -33 -12 0 -15 16 -15 85 0 69 3 85 15 85 11 0 15 -12 15 -47z m770 -38 c0
-69 -3 -85 -15 -85 -12 0 -15 15 -15 71 0 63 -2 70 -15 59 -9 -7 -19 -10 -23
-6 -8 8 37 45 56 46 9 0 12 -24 12 -85z m130 75 c0 -5 -18 -10 -40 -10 -32 0
-40 -4 -40 -18 0 -15 6 -18 29 -14 21 3 33 -2 45 -19 21 -31 20 -55 -4 -79
-26 -26 -62 -26 -85 0 -23 26 -11 39 14 16 28 -26 61 -13 61 24 0 34 -28 48
-59 28 -27 -17 -31 -10 -24 40 l6 42 48 0 c27 0 49 -4 49 -10z m130 -44 c0
-34 5 -57 13 -60 10 -5 10 -7 0 -12 -7 -3 -13 -14 -13 -25 0 -10 -7 -19 -15
-19 -8 0 -15 9 -15 20 0 17 -7 20 -40 20 -22 0 -40 3 -40 6 0 14 86 123 98
124 8 0 12 -17 12 -54z m155 34 c-16 -51 -66 -150 -76 -150 -12 0 -6 24 27 94
l24 51 -50 3 c-73 4 -61 22 16 22 61 0 65 -1 59 -20z m121 -1 c43 -47 14 -149
-43 -149 -38 0 -63 34 -63 85 0 75 62 112 106 64z m104 -64 c0 -69 -3 -85 -15
-85 -12 0 -15 15 -15 71 0 63 -2 70 -15 59 -9 -7 -19 -10 -23 -6 -9 9 35 46
54 46 11 0 14 -19 14 -85z m80 0 c0 -69 -3 -85 -15 -85 -12 0 -15 15 -15 71 0
60 -2 70 -14 60 -9 -8 -16 -8 -20 -2 -4 5 4 17 16 25 43 30 48 22 48 -69z
m111 75 c31 -17 24 -59 -18 -102 l-37 -38 42 0 c23 0 42 -4 42 -10 0 -6 -27
-10 -60 -10 -37 0 -60 4 -60 11 0 6 21 30 47 53 33 30 45 47 40 59 -11 29 -38
33 -58 9 -20 -26 -29 -28 -29 -8 0 37 51 57 91 36z m-2361 -15 c0 -8 7 -15 15
-15 8 0 15 -4 15 -10 0 -5 -7 -10 -15 -10 -11 0 -15 -12 -15 -45 0 -33 4 -45
15 -45 8 0 15 -4 15 -10 0 -16 -47 -11 -54 6 -3 9 -6 33 -6 54 0 21 -6 41 -12
44 -10 5 -10 7 0 12 6 3 12 12 12 20 0 8 7 14 15 14 8 0 15 -7 15 -15z m430 0
c0 -8 7 -15 15 -15 8 0 15 -4 15 -10 0 -5 -7 -10 -15 -10 -11 0 -15 -12 -15
-45 0 -33 4 -45 15 -45 8 0 15 -4 15 -10 0 -16 -47 -11 -54 6 -3 9 -6 33 -6
54 0 21 -6 41 -12 44 -10 5 -10 7 0 12 6 3 12 12 12 20 0 8 7 14 15 14 8 0 15
-7 15 -15z m-638 -32 c10 -9 18 -24 18 -35 0 -15 -8 -18 -45 -18 -47 0 -56 -9
-30 -30 13 -11 20 -11 40 0 31 16 42 8 20 -14 -36 -36 -95 -6 -95 47 0 57 52
86 92 50z m132 1 c31 -31 16 -46 -16 -17 -25 23 -53 6 -53 -32 0 -38 28 -55
53 -32 32 29 47 14 16 -17 -35 -36 -94 -6 -94 47 0 57 58 88 94 51z m217 -5
c37 -37 8 -109 -45 -109 -30 0 -56 30 -56 63 0 61 59 88 101 46z m99 10 c0 -4
-9 -13 -20 -19 -15 -8 -20 -21 -20 -55 0 -33 -4 -45 -15 -45 -12 0 -15 14 -15
64 l0 64 35 0 c19 0 35 -4 35 -9z m330 -9 c56 -56 -23 -146 -82 -93 -10 9 -18
30 -18 46 0 60 59 88 100 47z m124 4 c31 -31 16 -46 -16 -17 -25 23 -53 6 -53
-32 0 -38 28 -55 53 -32 32 29 47 14 16 -17 -35 -36 -94 -6 -94 47 0 57 58 88
94 51z m310 0 c31 -31 16 -46 -16 -17 -25 23 -53 6 -53 -32 0 -38 28 -55 53
-32 32 29 47 14 16 -17 -35 -36 -94 -6 -94 47 0 57 58 88 94 51z m136 -4 c56
-56 -23 -146 -82 -93 -10 9 -18 30 -18 46 0 60 59 88 100 47z m198 7 c14 -10
17 -117 2 -117 -5 0 -10 20 -10 44 0 54 -24 81 -46 51 -8 -10 -14 -36 -14 -57
0 -58 -19 -45 -22 15 -3 44 -6 52 -23 52 -17 0 -20 -8 -23 -52 -2 -38 -7 -53
-18 -53 -11 0 -14 15 -14 64 l0 64 78 -2 c42 -1 83 -5 90 -9z m-448 -102 c0
-8 -7 -15 -15 -15 -8 0 -15 7 -15 15 0 8 7 15 15 15 8 0 15 -7 15 -15z"/>
<path d="M530 425 c-18 -22 -9 -27 46 -23 46 3 47 4 30 21 -22 21 -59 22 -76
2z"/>
<path d="M1037 422 c-34 -38 -10 -112 36 -112 26 0 47 29 47 65 0 58 -49 85
-83 47z"/>
<path d="M1687 422 c-34 -38 -10 -112 36 -112 26 0 47 29 47 65 0 58 -49 85
-83 47z"/>
<path d="M9066 385 c-21 -31 -20 -35 4 -35 16 0 20 7 20 30 0 36 -3 37 -24 5z"/>
<path d="M9330 425 c-18 -22 -17 -83 3 -102 26 -27 51 -6 55 46 5 61 -28 92
-58 56z"/>
<path d="M7060 385 c-11 -13 -7 -15 25 -15 32 0 36 2 25 15 -7 8 -18 15 -25
15 -7 0 -18 -7 -25 -15z"/>
<path d="M7398 376 c-12 -28 -5 -54 17 -62 35 -14 61 46 33 74 -19 19 -37 14
-50 -12z"/>
<path d="M7830 386 c-15 -19 -9 -56 12 -69 34 -22 66 41 36 71 -16 16 -33 15
-48 -2z"/>
<path d="M8400 386 c-15 -19 -9 -56 12 -69 34 -22 66 41 36 71 -16 16 -33 15
-48 -2z"/>
</g>
</svg>
